<mxfile host="app.diagrams.net" modified="2024-07-03T12:43:40.008Z" agent="Mozilla/5.0 (Windows NT 10.0; Win64; x64) AppleWebKit/537.36 (KHTML, like Gecko) Chrome/126.0.0.0 Safari/537.36" version="24.5.2" etag="RML5LwiE6iXXjPLDZjtg" type="github">
  <diagram name="Pagina-1" id="d8KVp2yMwrdCG0Y6U3ZD">
    <mxGraphModel>
      <root>
        <mxCell id="0" />
        <mxCell id="1" parent="0" />
      </root>
    </mxGraphModel>
  </diagram>
</mxfile>
